<svg id="Layer_1" data-name="Layer 1" xmlns="http://www.w3.org/2000/svg" xmlns:xlink="http://www.w3.org/1999/xlink" viewBox="0 0 189 169"><defs><style>.cls-1{fill:url(#linear-gradient);}.cls-2{fill:url(#linear-gradient-2);}.cls-3{fill:url(#linear-gradient-3);}</style><linearGradient id="linear-gradient" x1="134.37" y1="42.87" x2="142.24" y2="84.4" gradientUnits="userSpaceOnUse"><stop offset="0" stop-color="#7f00ff"/><stop offset="1" stop-color="#b576d1"/></linearGradient><linearGradient id="linear-gradient-2" x1="97.27" y1="74.69" x2="84.81" y2="3.22" gradientUnits="userSpaceOnUse"><stop offset="0" stop-color="#02c9ff"/><stop offset="1" stop-color="#0100fe"/></linearGradient><linearGradient id="linear-gradient-3" x1="147.55" y1="116.74" x2="17.73" y2="71.49" gradientUnits="userSpaceOnUse"><stop offset="0" stop-color="#ff8b2c"/><stop offset="1" stop-color="#ff0082"/></linearGradient></defs><title>Artboard 3</title><path class="cls-1" d="M140.11,86.68a8.66,8.66,0,0,1-8.58-7.59L128,50.93a8.66,8.66,0,0,1,17.18-2.13L148.7,77a8.65,8.65,0,0,1-7.52,9.65A9.77,9.77,0,0,1,140.11,86.68Z"/><path class="cls-2" d="M94.89,72a8.64,8.64,0,0,1-8.55-7.39L82.06,35.57a8.65,8.65,0,0,1,17.12-2.52l4.27,29.06a8.65,8.65,0,0,1-7.3,9.82A9,9,0,0,1,94.89,72Z"/><path class="cls-3" d="M69,156.9a9,9,0,0,1-13.17-6.57l-19-129.42A8.65,8.65,0,0,1,54,18.39L71.24,136l52.38-28.6L94.37,95.89A8.84,8.84,0,0,1,89,85.12a8.65,8.65,0,0,1,11.41-5.44l46.14,18.11a9,9,0,0,1,1,16.22Z"/></svg>